<?xml version="1.0" encoding="UTF-8" standalone="no"?><!DOCTYPE svg PUBLIC "-//W3C//DTD SVG 1.1//EN" "http://www.w3.org/Graphics/SVG/1.1/DTD/svg11.dtd"><svg width="100%" height="100%" viewBox="0 0 256 256" version="1.1" xmlns="http://www.w3.org/2000/svg" xmlns:xlink="http://www.w3.org/1999/xlink" xml:space="preserve" xmlns:serif="http://www.serif.com/" style="fill-rule:evenodd;clip-rule:evenodd;stroke-linejoin:round;stroke-miterlimit:2;"><g><g><path d="M66.168,15.244l87.472,113.254c2.894,3.748 2.202,9.14 -1.546,12.034l-13.58,10.489c-3.748,2.894 -9.14,2.202 -12.034,-1.546l-87.472,-113.254c-2.894,-3.748 -2.202,-9.14 1.546,-12.034l13.58,-10.489c3.748,-2.894 9.14,-2.202 12.034,1.546Z" style="fill:#0083dd;"/><path d="M67.356,117.375l78.302,90.229c3.104,3.576 2.72,8.999 -0.857,12.103l-12.959,11.246c-3.576,3.104 -8.999,2.72 -12.103,-0.857l-78.302,-90.229c-3.104,-3.576 -2.72,-8.999 0.857,-12.103l12.959,-11.246c3.576,-3.104 8.999,-2.72 12.103,0.857Z" style="fill:#006bb3;"/><circle cx="155.045" cy="82.678" r="63.735" style="fill:#0083dd;"/><circle cx="155.045" cy="192.592" r="51.498" style="fill:#006bb3;"/></g><g><path d="M66.168,15.244l87.472,113.254c2.894,3.748 2.202,9.14 -1.546,12.034l-13.58,10.489c-3.748,2.894 -9.14,2.202 -12.034,-1.546l-87.472,-113.254c-2.894,-3.748 -2.202,-9.14 1.546,-12.034l13.58,-10.489c3.748,-2.894 9.14,-2.202 12.034,1.546Z" style="fill:#0083dd;"/><path d="M67.356,117.375l78.302,90.229c3.104,3.576 2.72,8.999 -0.857,12.103l-12.959,11.246c-3.576,3.104 -8.999,2.72 -12.103,-0.857l-78.302,-90.229c-3.104,-3.576 -2.72,-8.999 0.857,-12.103l12.959,-11.246c3.576,-3.104 8.999,-2.72 12.103,0.857Z" style="fill:#006bb3;"/><circle cx="155.045" cy="82.678" r="63.735" style="fill:#0083dd;"/><circle cx="155.045" cy="192.592" r="51.498" style="fill:#006bb3;"/></g></g><path d="M120.045,61.367c11.841,-19.958 37.31,-26.754 56.838,-15.168c19.529,11.587 25.77,37.197 13.928,57.155c-11.841,19.958 -37.31,26.754 -56.838,15.168c-19.529,-11.587 -25.77,-37.197 -13.928,-57.155Z" style="fill:url(#_Linear1);"/><path d="M127.889,176.479c9.088,-15.318 28.635,-20.534 43.624,-11.641c14.988,8.893 19.778,28.549 10.69,43.866c-9.088,15.318 -28.635,20.534 -43.624,11.641c-14.988,-8.893 -19.778,-28.549 -10.69,-43.866Z" style="fill:url(#_Linear2);"/><defs><linearGradient id="_Linear1" x1="0" y1="0" x2="1" y2="0" gradientUnits="userSpaceOnUse" gradientTransform="matrix(42.909871,-72.322301,70.766852,41.987,133.973707,118.521409)"><stop offset="0" style="stop-color:#fff;stop-opacity:0"/><stop offset="0.56" style="stop-color:#edf7ff;stop-opacity:0.2"/><stop offset="1" style="stop-color:#a7d9ff;stop-opacity:1"/></linearGradient><linearGradient id="_Linear2" x1="0" y1="0" x2="1" y2="0" gradientUnits="userSpaceOnUse" gradientTransform="matrix(32.933455,-55.507583,54.313772,32.225149,138.578715,220.34544)"><stop offset="0" style="stop-color:#fff;stop-opacity:0"/><stop offset="0.56" style="stop-color:#edf7ff;stop-opacity:0.2"/><stop offset="1" style="stop-color:#a7d9ff;stop-opacity:1"/></linearGradient></defs></svg>