<svg width="1920" height="1080" viewBox="0 0 1920 1080" version="1.1" xmlns="http://www.w3.org/2000/svg" xmlns:xlink="http://www.w3.org/1999/xlink" xml:space="preserve" xmlns:serif="http://www.serif.com/"><rect width="1920" height="1080" fill="#111"/><path d="M0 379.164v-228.827h.592c7.745-71.709 64.648-115.966 165.007-126.028 131.664-13.201 210.065 54.32 217.81 126.028h1.183c7.745-71.709 103.772-148.088 204.609-150.337 98.662-2.2 170.463 78.628 178.208 150.337h1.183c7.745-71.709 97.046-153.711 191.408-150.23 140.68 5.19 188.656 96.826 191.408 150.23h1.183c7.745-71.709 97.643-127.168 195.809-150.337 111.863-26.402 179.264 78.628 187.008 150.337h1.183c7.745-71.709 96.89-157.533 206.809-150.337 98.398 6.442 168.263 78.628 176.007 150.337h.592v228.827h-1920 .001Z" fill="#2c2c2c"/><path d="M0 580.838v-228.827h.592c7.745-71.709 73.448-91.765 173.807-101.827 131.664-13.201 201.265 30.118 209.009 101.827h1.183c7.745-71.709 152.175-139.181 253.012-141.429 98.662-2.2 122.06 69.721 129.805 141.429h1.183c7.745-71.709 97.046-153.711 191.408-150.23 140.68 5.19 188.656 96.826 191.408 150.23h1.183c7.745-71.709 141.646-100.66 239.811-123.828 111.863-26.402 135.261 52.12 143.005 123.828h1.183c7.745-71.709 46.287-128.824 156.206-121.628 98.398 6.442 218.866 49.919 226.61 121.628h.592v228.827h-1920 .003Z" fill="#484848"/><path d="M0 769.134v-228.827h.592c7.745-71.709 162.593-56.724 246.412-112.828 85.461-57.203 128.661 41.119 136.405 112.828h1.183c7.745-71.709 95.755-171.225 191.408-139.229 98.662 33.002 183.664 67.52 191.408 139.229h1.183c7.745-71.709 14.802-162.174 107.803-145.83 129.679 22.791 272.261 92.426 275.013 145.83h1.183c7.745-71.709 105.965-113.119 206.809-115.028 116.263-2.2 168.263 43.319 176.007 115.028h1.183c7.745-71.709 37.743-73.225 145.206-97.427 98.398-22.16 229.867 25.718 237.611 97.427h.592v228.827h-1920 .002Z" fill="#696969"/><path d="M0 956.476v-228.827h.592c7.745-71.709 145.549-119.428 246.412-119.428 100.862 0 128.661 47.719 136.405 119.428h1.183c7.745-71.709 155.159-151.423 250.812-119.428 98.662 33.002 124.26 47.719 132.005 119.428h1.183c7.745-71.709 64.144-121.628 165.007-121.628 100.862 0 210.065 49.919 217.81 121.628h1.183c7.745-71.709 2.395-190.927 81.402-128.228 94.262 74.804 293.67 56.52 301.415 128.228h1.183c7.745-71.709 127.948-68.825 235.411-93.026 98.398-22.16 139.661 21.318 147.406 93.026h.592v228.827h-1920.001Z" fill="#898989"/><path d="M0 1080v-228.827h.592c7.745-71.709 88.346-95.227 189.208-95.227 100.862 0 185.864 23.518 193.608 95.227h1.183c7.745-71.709 92.746-154.63 193.608-154.63 100.862 0 181.464 82.921 189.208 154.63h1.183c7.745-71.709 130.148-115.028 231.011-115.028 100.862 0 144.061 43.319 151.806 115.028h1.183c7.745-71.709 34.63-145.723 132.005-119.428 114.063 30.802 243.067 47.719 250.812 119.428h1.183c7.745-71.709 88.346-97.427 189.208-97.427 100.862 0 185.864 25.718 193.608 97.427h.592v228.827h-1920 .002Z" fill="#adadad"/></svg>